<svg viewBox="0 0 880 655" xmlns:xlink="http://www.w3.org/1999/xlink" xmlns="http://www.w3.org/2000/svg" data-sanitized-data-name="The Solar Zenith Angle" data-name="The Solar Zenith Angle" id="The_Solar_Zenith_Angle">
  <defs>
    <style>
      .cls-1 {
        fill: #ccd4ec;
      }

      .cls-2 {
        opacity: .8;
      }

      .cls-2, .cls-3, .cls-4, .cls-5, .cls-6 {
        fill: none;
        stroke-miterlimit: 10;
        stroke-width: 3px;
      }

      .cls-2, .cls-4 {
        stroke: #384a9c;
      }

      .cls-3 {
        stroke: #54565a;
      }

      .cls-7 {
        fill: #54565a;
      }

      .cls-8 {
        fill: #384a9c;
      }

      .cls-5 {
        opacity: .5;
      }

      .cls-5, .cls-6 {
        stroke: #ccd4ec;
      }

      .cls-9 {
        fill: url(#linear-gradient);
      }

      .cls-10 {
        font-family: OpenSans, 'Open Sans';
        font-size: 20px;
      }

      .cls-6 {
        opacity: .25;
      }
    </style>
    <linearGradient gradientUnits="userSpaceOnUse" y2="329.5" x2="525" y1="329.5" x1="100" id="linear-gradient">
      <stop stop-color="#949fd0" offset=".09"></stop>
      <stop stop-opacity="0" stop-color="#bdccd4" offset="1"></stop>
    </linearGradient>
  </defs>
  <path d="m465.41,493.96c-27.79,25.84-62.12,44.73-100.24,53.91" class="cls-4"></path>
  <path d="m507.78,440.49c-10.45,18.33-23.4,35.04-38.39,49.68" class="cls-2"></path>
  <path d="m528.64,390.81c-4.32,15.22-10.2,29.78-17.46,43.5" class="cls-5"></path>
  <path d="m537.13,332.26c-.24,18.37-2.67,36.2-7.06,53.25" class="cls-6"></path>
  <path d="m530.07,273.11c4.24,16.45,6.65,33.64,7.03,51.32" class="cls-6"></path>
  <path d="m507.34,217.38c9.04,15.71,16.24,32.62,21.29,50.43" class="cls-5"></path>
  <path d="m467.81,166.94c13.33,12.77,25.1,27.17,34.98,42.87" class="cls-2"></path>
  <path d="m369.5,111.85c34.92,9.15,66.52,26.49,92.64,49.84" class="cls-4"></path>
  <line y2="589.5" x2="220.5" y1="49.5" x1="416.5" class="cls-3"></line>
  <g>
    <path d="m424.7,68.83c14.45,7.69,23.55,15.95,21.69,20.52-2.42,5.96-22.51,3.44-44.88-5.64s-38.53-21.27-36.11-27.23c2.03-5,16.49-4.03,34.3,1.77" class="cls-4"></path>
    <polygon points="427.57 76.16 425.47 69.28 432.35 67.18 428.53 65.15 421.66 67.26 423.76 74.14 427.57 76.16" class="cls-8"></polygon>
  </g>
  <line y2="418.5" x2="587.5" y1="220.5" x1="44.5" class="cls-4"></line>
  <circle r="212.5" cy="329.32" cx="312.35" class="cls-1"></circle>
  <g>
    <g>
      <line y2="117.19" x2="434.43" y1="117.19" x1="757.21" class="cls-3"></line>
      <polygon points="440.4 112.1 435.32 117.19 440.4 122.28 436.09 122.28 431 117.19 436.09 112.1 440.4 112.1" class="cls-7"></polygon>
    </g>
    <g>
      <line y2="170.38" x2="496.57" y1="170.38" x1="757.21" class="cls-3"></line>
      <polygon points="502.55 165.29 497.46 170.38 502.55 175.46 498.23 175.46 493.14 170.38 498.23 165.29 502.55 165.29" class="cls-7"></polygon>
    </g>
    <g>
      <line y2="225.07" x2="537.27" y1="225.07" x1="757.21" class="cls-3"></line>
      <polygon points="543.24 219.98 538.15 225.07 543.24 230.15 538.92 230.15 533.84 225.07 538.92 219.98 543.24 219.98" class="cls-7"></polygon>
    </g>
    <g>
      <line y2="279.41" x2="567.43" y1="279.41" x1="757.21" class="cls-3"></line>
      <polygon points="573.4 274.32 568.32 279.41 573.4 284.49 569.09 284.49 564 279.41 569.09 274.32 573.4 274.32" class="cls-7"></polygon>
    </g>
    <g>
      <line y2="335.54" x2="567.43" y1="335.54" x1="757.21" class="cls-3"></line>
      <polygon points="573.4 330.45 568.32 335.54 573.4 340.62 569.09 340.62 564 335.54 569.09 330.45 573.4 330.45" class="cls-7"></polygon>
    </g>
    <g>
      <line y2="389.23" x2="567.43" y1="389.23" x1="757.21" class="cls-3"></line>
      <polygon points="573.4 384.15 568.32 389.23 573.4 394.32 569.09 394.32 564 389.23 569.09 384.15 573.4 384.15" class="cls-7"></polygon>
    </g>
    <g>
      <line y2="445.19" x2="537.27" y1="445.19" x1="757.21" class="cls-3"></line>
      <polygon points="543.24 440.1 538.15 445.19 543.24 450.28 538.92 450.28 533.84 445.19 538.92 440.1 543.24 440.1" class="cls-7"></polygon>
    </g>
    <g>
      <line y2="499.32" x2="496.57" y1="499.32" x1="757.21" class="cls-3"></line>
      <polygon points="502.55 494.23 497.46 499.32 502.55 504.41 498.23 504.41 493.14 499.32 498.23 494.23 502.55 494.23" class="cls-7"></polygon>
    </g>
    <g>
      <line y2="553.1" x2="441.43" y1="553.1" x1="757.21" class="cls-3"></line>
      <polygon points="447.4 548.02 442.32 553.1 447.4 558.19 443.09 558.19 438 553.1 443.09 548.02 447.4 548.02" class="cls-7"></polygon>
    </g>
  </g>
  <text transform="translate(798.54 297.18) rotate(90)" class="cls-10"><tspan y="0" x="0">Sunlight</tspan></text>
  <circle r="212.5" cy="329.5" cx="312.5" class="cls-9"></circle>
</svg>