<svg viewBox="0 0 1468 655" xmlns:xlink="http://www.w3.org/1999/xlink" xmlns="http://www.w3.org/2000/svg" data-sanitized-data-name="I0 is the irradiance" data-name="I0 is the irradiance" id="I0_is_the_irradiance">
  <defs>
    <style>
      .cls-1 {
        fill: #ccd4ec;
      }

      .cls-2, .cls-3, .cls-4, .cls-5, .cls-6, .cls-7 {
        fill: none;
        stroke-miterlimit: 10;
      }

      .cls-2, .cls-3, .cls-5, .cls-6, .cls-7 {
        stroke-width: 3px;
      }

      .cls-2, .cls-4, .cls-6, .cls-7 {
        stroke: #54565a;
      }

      .cls-3 {
        stroke: #ccd4ec;
      }

      .cls-8 {
        letter-spacing: 0em;
      }

      .cls-8, .cls-9, .cls-10 {
        font-family: OpenSans, 'Open Sans';
        font-size: 15px;
      }

      .cls-9 {
        letter-spacing: 0em;
      }

      .cls-4 {
        stroke-width: 2px;
      }

      .cls-5 {
        stroke: #384a9c;
      }

      .cls-11 {
        fill: #54565a;
      }

      .cls-12 {
        fill: #384a9c;
      }

      .cls-13 {
        fill: #949fd0;
      }

      .cls-14 {
        fill: url(#linear-gradient);
      }

      .cls-6 {
        stroke-dasharray: 0 0 5.6 5.6;
      }

      .cls-7 {
        stroke-dasharray: 0 0 5.83 5.83;
      }
    </style>
    <linearGradient gradientUnits="userSpaceOnUse" y2="360.11" x2="1153.84" y1="360.11" x1="802.29" id="linear-gradient">
      <stop stop-color="#949fd0" offset=".09"></stop>
      <stop stop-opacity="0" stop-color="#bdccd4" offset="1"></stop>
    </linearGradient>
  </defs>
  <circle r="175.77" cy="359.95" cx="977.94" class="cls-1"></circle>
  <circle r="175.77" cy="360.11" cx="978.06" class="cls-14"></circle>
  <line y2="575.17" x2="901.96" y1="68.12" x1="1085.87" class="cls-2"></line>
  <g>
    <path d="m1092.35,80.66c11.65,6.28,18.94,12.96,17.42,16.7-2,4.93-18.62,2.84-37.12-4.67-18.5-7.51-31.87-17.59-29.87-22.53,1.68-4.14,13.64-3.33,28.37,1.46" class="cls-5"></path>
    <polygon points="1095.23 87.98 1093.12 81.1 1100 79 1096.19 76.97 1089.31 79.08 1091.42 85.96 1095.23 87.98" class="cls-12"></polygon>
  </g>
  <line y2="433.72" x2="1205.53" y1="269.95" x1="756.38" class="cls-2"></line>
  <g>
    <line y2="515.88" x2="810.19" y1="200.04" x1="1145.03" class="cls-4"></line>
    <line y2="525.88" x2="1144.94" y1="177.79" x1="817.24" class="cls-4"></line>
  </g>
  <line y2="310.56" x2="1215.56" y1="394.49" x1="747.85" class="cls-4"></line>
  <line y2="118.97" x2="940.87" y1="589.66" x1="1024.62" class="cls-4"></line>
  <g>
    <line y2="195.35" x2="1412" y1="195.35" x1="1047.71" class="cls-4"></line>
    <polygon points="1051.7 198.74 1048.3 195.35 1051.7 191.95 1048.82 191.95 1045.43 195.35 1048.82 198.74 1051.7 198.74" class="cls-11"></polygon>
  </g>
  <text transform="translate(1363.36 183.85)" class="cls-10"><tspan y="0" x="0">e</tspan></text>
  <text transform="translate(1371.78 188.84) scale(.58)" class="cls-8"><tspan y="0" x="0">s</tspan></text>
  <text transform="translate(1375.95 183.85)" class="cls-10"><tspan y="0" x="0">= 60°</tspan></text>
  <g>
    <line y2="237.83" x2="1412" y1="237.83" x1="1114.68" class="cls-4"></line>
    <polygon points="1118.66 241.22 1115.27 237.83 1118.66 234.44 1115.78 234.44 1112.39 237.83 1115.78 241.22 1118.66 241.22" class="cls-11"></polygon>
  </g>
  <text transform="translate(1363.36 224.92)" class="cls-10"><tspan y="0" x="0">e</tspan></text>
  <text transform="translate(1371.78 229.92) scale(.58)" class="cls-10"><tspan y="0" x="0">s</tspan></text>
  <text transform="translate(1375.95 224.92)" class="cls-9"><tspan y="0" x="0">= 30°</tspan></text>
  <g>
    <line y2="329.06" x2="1412" y1="329.06" x1="1159.26" class="cls-4"></line>
    <polygon points="1163.24 332.46 1159.85 329.06 1163.24 325.67 1160.36 325.67 1156.97 329.06 1160.36 332.46 1163.24 332.46" class="cls-11"></polygon>
  </g>
  <g>
    <line y2="407.97" x2="1412" y1="407.97" x1="1159.26" class="cls-4"></line>
    <polygon points="1163.24 411.36 1159.85 407.97 1163.24 404.58 1160.36 404.58 1156.97 407.97 1160.36 411.36 1163.24 411.36" class="cls-11"></polygon>
  </g>
  <g>
    <line y2="480.71" x2="1412" y1="480.71" x1="1119.8" class="cls-4"></line>
    <polygon points="1123.79 484.1 1120.39 480.71 1123.79 477.32 1120.91 477.32 1117.52 480.71 1120.91 484.1 1123.79 484.1" class="cls-11"></polygon>
  </g>
  <g>
    <line y2="536.19" x2="1412" y1="536.19" x1="1025.91" class="cls-4"></line>
    <polygon points="1029.89 539.58 1026.5 536.19 1029.89 532.8 1027.01 532.8 1023.62 536.19 1027.01 539.58 1029.89 539.58" class="cls-11"></polygon>
  </g>
  <text transform="translate(1371.94 316.61)" class="cls-10"><tspan y="0" x="0">e</tspan></text>
  <text transform="translate(1380.35 321.6) scale(.58)" class="cls-8"><tspan y="0" x="0">s</tspan></text>
  <text transform="translate(1384.53 316.61)" class="cls-10"><tspan y="0" x="0">= 5°</tspan></text>
  <text transform="translate(1350.79 394.28)" class="cls-10"><tspan y="0" x="0">e</tspan></text>
  <text transform="translate(1359.21 399.28) scale(.58)" class="cls-8"><tspan y="0" x="0">s</tspan></text>
  <text transform="translate(1363.38 394.28)" class="cls-10"><tspan y="0" x="0">= 23.4°</tspan></text>
  <text transform="translate(1363.36 469.49)" class="cls-10"><tspan y="0" x="0">e</tspan></text>
  <text transform="translate(1371.78 474.48) scale(.58)" class="cls-8"><tspan y="0" x="0">s</tspan></text>
  <text transform="translate(1375.95 469.49)" class="cls-10"><tspan y="0" x="0">= 50°</tspan></text>
  <text transform="translate(1363.36 526.2)" class="cls-10"><tspan y="0" x="0">e</tspan></text>
  <text transform="translate(1371.78 531.2) scale(.58)" class="cls-8"><tspan y="0" x="0">s</tspan></text>
  <text transform="translate(1375.95 526.2)" class="cls-10"><tspan y="0" x="0">= 80°</tspan></text>
  <ellipse ry="49" rx="233" cy="473" cx="358" class="cls-1"></ellipse>
  <line y2="475.57" x2="622" y1="470.57" x1="93" class="cls-2"></line>
  <line y2="541.75" x2="245.13" y1="408.81" x1="460.46" class="cls-2"></line>
  <text transform="translate(225.7 547.59)" class="cls-10"><tspan y="0" x="0">N</tspan></text>
  <text transform="translate(465.54 406.79)" class="cls-10"><tspan y="0" x="0">S</tspan></text>
  <text transform="translate(628.08 479.79)" class="cls-10"><tspan y="0" x="0">W</tspan></text>
  <text transform="translate(82.08 474.79)" class="cls-10"><tspan y="0" x="0">E</tspan></text>
  <g>
    <line y2="451.91" x2="358" y1="454.91" x1="358" class="cls-2"></line>
    <line y2="262.35" x2="358" y1="446.08" x1="358" class="cls-7"></line>
    <line y2="256.43" x2="358" y1="259.43" x1="358" class="cls-2"></line>
    <polygon points="363.09 262.4 358 257.32 352.91 262.4 352.91 258.09 358 253 363.09 258.09 363.09 262.4" class="cls-11"></polygon>
  </g>
  <g>
    <line y2="399.18" x2="333.39" y1="401.88" x1="334.71" class="cls-2"></line>
    <line y2="336.23" x2="302.82" y1="394.15" x1="330.95" class="cls-6"></line>
    <line y2="331.02" x2="300.29" y1="333.71" x1="301.6" class="cls-2"></line>
    <polygon points="307.47 334.17 300.67 331.81 298.32 338.61 296.44 334.73 298.79 327.93 305.59 330.29 307.47 334.17" class="cls-11"></polygon>
  </g>
  <circle r="35.5" cy="436.5" cx="352.5" class="cls-12"></circle>
  <path d="m114.5,437.5C254.46,280.63,408.84,66.99,520.5,160.5c102.81,86.09,98.73,275.41,97,294" class="cls-3"></path>
  <circle r="35.5" cy="270.5" cx="259.5" class="cls-13"></circle>
  <text transform="translate(312.52 339.6)" class="cls-10"><tspan y="0" x="0">Ѳ</tspan></text>
</svg>