<svg viewBox="0 0 2318 655" xmlns:xlink="http://www.w3.org/1999/xlink" xmlns="http://www.w3.org/2000/svg" data-sanitized-data-name="The solar zenith" data-name="The solar zenith" id="The_solar_zenith">
  <defs>
    <style>
      .cls-1 {
        fill: url(#linear-gradient-2);
      }

      .cls-2 {
        stroke-dasharray: 0 6;
      }

      .cls-2, .cls-3, .cls-4 {
        stroke: #54565a;
      }

      .cls-2, .cls-3, .cls-4, .cls-5, .cls-6 {
        fill: none;
        stroke-miterlimit: 10;
      }

      .cls-2, .cls-3, .cls-5, .cls-6 {
        stroke-width: 3px;
      }

      .cls-7 {
        fill: #ccd4ec;
      }

      .cls-8 {
        font-size: 16.41px;
      }

      .cls-8, .cls-9 {
        font-family: OpenSans, 'Open Sans';
      }

      .cls-9 {
        font-size: 15px;
      }

      .cls-4 {
        stroke-width: 2px;
      }

      .cls-5 {
        stroke: #418fde;
      }

      .cls-6 {
        stroke: #384a9c;
      }

      .cls-10 {
        fill: #384a9c;
      }

      .cls-11 {
        fill: #949fd0;
      }

      .cls-12 {
        fill: url(#linear-gradient);
      }
    </style>
    <linearGradient gradientUnits="userSpaceOnUse" y2="326.88" x2="1027.98" y1="326.88" x1="679.06" id="linear-gradient">
      <stop stop-color="#949fd0" offset=".09"></stop>
      <stop stop-opacity="0" stop-color="#bdccd4" offset="1"></stop>
    </linearGradient>
    <linearGradient xlink:href="#linear-gradient" y2="325.05" x2="453.2" y1="325.05" x1="141.76" id="linear-gradient-2"></linearGradient>
  </defs>
  <g>
    <circle r="174.46" cy="326.72" cx="853.4" class="cls-7"></circle>
    <circle r="174.46" cy="326.88" cx="853.52" class="cls-12"></circle>
    <circle r="174.46" cy="316.39" cx="1344.01" class="cls-10"></circle>
    <line y2="319.42" x2="1344.01" y1="319.42" x1="858.45" class="cls-5"></line>
    <line y2="540.33" x2="777.99" y1="97" x1="938.91" class="cls-3"></line>
    <g>
      <path d="m946.18,113.16c11.55,6.23,18.77,12.86,17.27,16.56-1.99,4.9-18.48,2.82-36.84-4.63-18.36-7.45-31.64-17.46-29.65-22.36,1.67-4.11,13.54-3.31,28.16,1.45" class="cls-6"></path>
      <polygon points="949.06 120.48 946.95 113.6 953.83 111.5 950.02 109.47 943.14 111.58 945.24 118.46 949.06 120.48" class="cls-10"></polygon>
    </g>
    <line y2="399.94" x2="1079.3" y1="237.39" x1="633.5" class="cls-6"></line>
    <path d="m1027.7,319.42s-.51,39.3-7.61,58.94" class="cls-5"></path>
    <text transform="translate(1030.7 370.61) rotate(17.13)" class="cls-9"><tspan y="0" x="0">δ equator</tspan></text>
  </g>
  <g>
    <g>
      <path d="m380.51,134.47c10.12,5.51,16.42,11.34,15.09,14.6-1.77,4.37-16.5,2.52-32.89-4.13-16.39-6.65-28.24-15.59-26.47-19.96,1.49-3.66,12.09-2.95,25.14,1.3" class="cls-6"></path>
      <polygon points="383.39 141.78 381.28 134.9 388.16 132.8 384.35 130.77 377.47 132.88 379.57 139.76 383.39 141.78" class="cls-10"></polygon>
    </g>
    <circle r="155.72" cy="324.91" cx="297.37" class="cls-7"></circle>
    <circle r="155.72" cy="325.05" cx="297.48" class="cls-1"></circle>
    <line y2="514.85" x2="228.6" y1="119.13" x1="372.22" class="cls-3"></line>
    <line y2="390.27" x2="499" y1="245.17" x1="101.09" class="cls-3"></line>
    <g>
      <line y2="488.68" x2="178.06" y1="146.28" x1="422.97" class="cls-4"></line>
      <line y2="440.45" x2="470.81" y1="193.53" x1="126.69" class="cls-4"></line>
    </g>
    <g>
      <line y2="450.94" x2="138.3" y1="184.23" x1="464.01" class="cls-4"></line>
      <line y2="480.69" x2="433.51" y1="152.6" x1="165.66" class="cls-4"></line>
    </g>
    <g>
      <line y2="406.16" x2="109.29" y1="231.75" x1="492.44" class="cls-4"></line>
      <line y2="510.52" x2="387.03" y1="124.78" x1="212.14" class="cls-4"></line>
    </g>
    <g>
      <line y2="350.96" x2="92.38" y1="287.56" x1="508.55" class="cls-4"></line>
      <line y2="527.05" x2="331.17" y1="108.25" x1="268" class="cls-4"></line>
    </g>
    <g>
      <line y2="300.1" x2="90.39" y1="337.27" x1="509.72" class="cls-4"></line>
      <line y2="527.83" x2="280.57" y1="106" x1="318.6" class="cls-4"></line>
    </g>
    <text transform="translate(516.51 341.58) rotate(7.35)" class="cls-9"><tspan y="0" x="0">15°</tspan></text>
    <text transform="translate(516.88 290.8) rotate(-13.47)" class="cls-9"><tspan y="0" x="0">30°</tspan></text>
    <text transform="translate(499.35 234.6) rotate(-24.06)" class="cls-9"><tspan y="0" x="0">45°</tspan></text>
    <text transform="translate(472.73 186.38) rotate(-43.14)" class="cls-9"><tspan y="0" x="0">60°</tspan></text>
    <text transform="translate(430.62 146.4) rotate(-57.13)" class="cls-9"><tspan y="0" x="0">75°</tspan></text>
    <text transform="translate(505.27 397.84) rotate(24.14)" class="cls-9"><tspan y="0" x="0">Ѳ = 0°</tspan></text>
    <text transform="translate(55.26 230.01) rotate(24.14)" class="cls-9"><tspan y="0" x="0">Ѳ = 0°</tspan></text>
    <text transform="translate(354.96 100.13) rotate(21.45)" class="cls-9"><tspan y="0" x="0">Ѳ = 90°</tspan></text>
    <text transform="translate(196.82 519.96) rotate(21.45)" class="cls-9"><tspan y="0" x="0">Ѳ = -90°</tspan></text>
    <text transform="translate(473.26 446.27) rotate(35.08)" class="cls-9"><tspan y="0" x="0">-15°</tspan></text>
    <text transform="translate(101.84 178.91) rotate(43.24)" class="cls-9"><tspan y="0" x="0">15°</tspan></text>
    <text transform="translate(142.23 134.76) rotate(46.86)" class="cls-9"><tspan y="0" x="0">30°</tspan></text>
    <text transform="translate(192.41 103.7) rotate(59.34)" class="cls-9"><tspan y="0" x="0">45°</tspan></text>
    <text transform="translate(256.88 78.13) rotate(79.53)" class="cls-9"><tspan y="0" x="0">60°</tspan></text>
    <text transform="translate(312.59 77.01) rotate(90)" class="cls-9"><tspan y="0" x="0">75°</tspan></text>
    <text transform="translate(54.65 300.85) rotate(7.35)" class="cls-9"><tspan y="0" x="0">-15°</tspan></text>
    <text transform="translate(432.49 489.51) rotate(46.86)" class="cls-9"><tspan y="0" x="0">-30°</tspan></text>
    <text transform="translate(387.97 522.2) rotate(59.34)" class="cls-9"><tspan y="0" x="0">-45°</tspan></text>
    <text transform="translate(327.69 534.1) rotate(79.53) scale(1.01 1)" class="cls-8"><tspan y="0" x="0">-60°</tspan></text>
    <text transform="translate(273.45 538.07) rotate(90)" class="cls-9"><tspan y="0" x="0">-75°</tspan></text>
    <text transform="translate(59.59 361.68) rotate(-10.47)" class="cls-9"><tspan y="0" x="0">-30°</tspan></text>
    <text transform="translate(75.56 426.54) rotate(-26.21)" class="cls-9"><tspan y="0" x="0">-45°</tspan></text>
    <text transform="translate(110.37 481.67) rotate(-39.06) scale(1.01 1)" class="cls-8"><tspan y="0" x="0">-60°</tspan></text>
    <text transform="translate(161.11 520.15) rotate(-57.13)" class="cls-9"><tspan y="0" x="0">-75°</tspan></text>
  </g>
  <g>
    <ellipse ry="49" rx="233" cy="459.62" cx="1907.43" class="cls-7"></ellipse>
    <line y2="462.19" x2="2171.43" y1="457.19" x1="1642.43" class="cls-3"></line>
    <line y2="557.5" x2="1895.86" y1="213.5" x1="1932.86" class="cls-3"></line>
    <text transform="translate(1867.13 557.21)" class="cls-9"><tspan y="0" x="0">N</tspan></text>
    <text transform="translate(1927.97 385.41)" class="cls-9"><tspan y="0" x="0">S</tspan></text>
    <text transform="translate(2177.51 466.41)" class="cls-9"><tspan y="0" x="0">W</tspan></text>
    <text transform="translate(1631.51 461.41)" class="cls-9"><tspan y="0" x="0">E</tspan></text>
    <circle r="35.5" cy="156.5" cx="1937.86" class="cls-11"></circle>
    <circle r="35.5" cy="208.5" cx="2047.86" class="cls-11"></circle>
    <circle r="35.5" cy="277.5" cx="2137.86" class="cls-11"></circle>
    <circle r="35.5" cy="369.5" cx="2192.86" class="cls-11"></circle>
    <ellipse ry="35.5" rx="35.52" cy="208.5" cx="1822.67" class="cls-11"></ellipse>
    <ellipse ry="35.5" rx="35.52" cy="278.5" cx="1722.62" class="cls-11"></ellipse>
    <ellipse ry="35.5" rx="35.52" cy="370.5" cx="1664.56" class="cls-11"></ellipse>
    <polyline points="2022.86 264.5 1907.43 459.62 2088.86 317.5" class="cls-2"></polyline>
    <polyline points="2137.86 397.56 1907.43 459.62 1837.8 264.5" class="cls-2"></polyline>
    <polyline points="1765.86 312.5 1907.43 459.62 1718.69 397.41" class="cls-2"></polyline>
    <circle r="35.5" cy="426.5" cx="1907.86" class="cls-10"></circle>
    <text transform="translate(1683.82 234.57) scale(1.01 1)" class="cls-8"><tspan y="0" x="0">-60°</tspan></text>
    <text transform="translate(1795.94 160.92) scale(1.01 1)" class="cls-8"><tspan y="0" x="0">-30°</tspan></text>
    <text transform="translate(1628.94 325.92) scale(1.01 1)" class="cls-8"><tspan y="0" x="0">-90°</tspan></text>
    <text transform="translate(1871.94 101.92) scale(1.01 1)" class="cls-8"><tspan y="0" x="0">Solar Noon, ω = 0°</tspan></text>
    <text transform="translate(2069.94 160.92) scale(1.01 1)" class="cls-8"><tspan y="0" x="0">30°</tspan></text>
    <text transform="translate(2165.94 234.92) scale(1.01 1)" class="cls-8"><tspan y="0" x="0">60°</tspan></text>
    <text transform="translate(2218.94 326.92) scale(1.01 1)" class="cls-8"><tspan y="0" x="0">90°</tspan></text>
    <text transform="translate(1668.94 214.92) scale(1.01 1)" class="cls-8"><tspan y="0" x="0">8:00 am</tspan></text>
    <text transform="translate(1777.73 140.92) scale(1.01 1)" class="cls-8"><tspan y="0" x="0">10:00 am</tspan></text>
    <text transform="translate(1615.73 304.92) scale(1.01 1)" class="cls-8"><tspan y="0" x="0">6:00 am</tspan></text>
    <text transform="translate(2054.73 140.92) scale(1.01 1)" class="cls-8"><tspan y="0" x="0">2:00 pm</tspan></text>
    <text transform="translate(2147.73 213.92) scale(1.01 1)" class="cls-8"><tspan y="0" x="0">4:00 pm</tspan></text>
    <text transform="translate(2199.73 306.92) scale(1.01 1)" class="cls-8"><tspan y="0" x="0">6:00 pm</tspan></text>
    <text transform="translate(1914.26 74.25) scale(1.01 1)" class="cls-8"><tspan y="0" x="0">12:00 pm</tspan></text>
  </g>
  <text transform="translate(1885.71 610.47) scale(1.01 1)" class="cls-8"><tspan y="0" x="0">Solar angle, ω</tspan></text>
  <text transform="translate(1040.98 610.47) scale(1.01 1)" class="cls-8"><tspan y="0" x="0">Solar declination </tspan></text>
  <text transform="translate(1174.32 610.47)" class="cls-9"><tspan y="0" x="0">δ</tspan></text>
  <text transform="translate(259.21 610.47) scale(1.01 1)" class="cls-8"><tspan y="0" x="0">Latitude, Φ</tspan></text>
</svg>