<svg viewBox="0 0 848 263" xmlns:xlink="http://www.w3.org/1999/xlink" xmlns="http://www.w3.org/2000/svg">
  <defs>
    <style>
      .cls-1 {
        stroke-width: 2px;
      }

      .cls-1, .cls-2, .cls-3, .cls-4, .cls-5 {
        fill: none;
      }

      .cls-1, .cls-3 {
        stroke: #949fd0;
      }

      .cls-1, .cls-3, .cls-4 {
        stroke-miterlimit: 10;
      }

      .cls-2 {
        stroke: #cdd2e6;
        stroke-width: .4px;
      }

      .cls-3, .cls-4 {
        stroke-width: 3px;
      }

      .cls-6 {
        fill: #cdd2e6;
      }

      .cls-7 {
        clip-path: url(#clippath-2);
      }

      .cls-8 {
        fill: #9ca4ce;
      }

      .cls-4 {
        stroke: #54565a;
      }

      .cls-9 {
        clip-path: url(#clippath-1);
      }

      .cls-10 {
        clip-path: url(#clippath);
      }

      .cls-11 {
        fill: #384a9c;
      }

      .cls-12 {
        fill: #ccd4ec;
        opacity: .5;
      }

      .cls-13 {
        fill: #949fd0;
      }

      .cls-14 {
        fill: url(#linear-gradient);
      }
    </style>
    <clipPath id="clippath">
      <rect height="41.89" width="70" y="217.35" x="773.7" class="cls-5"></rect>
    </clipPath>
    <clipPath id="clippath-1">
      <path d="m785.01,221.64l36.58,7.29v.42l-35.03-6.03,3.05,3.36,31.98,3.15v.41c-10.25-.71-20.4-1.4-30.65-2.1l2.34,2.58c9.47,0,18.84,0,28.31,0v.35h3.76v-1.25c0-.97-.78-1.77-1.73-1.77h-2.03v.39l-40.45-11.09,3.87,4.28Z" class="cls-5"></path>
    </clipPath>
    <linearGradient gradientUnits="userSpaceOnUse" gradientTransform="translate(-35.78 34746.1) scale(44.22 -44.22)" y2="780.68" x2="19.47" y1="780.68" x1="18.47" id="linear-gradient">
      <stop stop-color="#fff" offset="0"></stop>
      <stop stop-color="#949fd1" offset="1"></stop>
    </linearGradient>
    <clipPath id="clippath-2">
      <rect height="41.89" width="70" y="217.35" x="773.7" class="cls-5"></rect>
    </clipPath>
  </defs>
  <g data-sanitized-data-name="Layer 1" data-name="Layer 1" id="Layer_1">
    <g class="cls-10">
      <circle r="1.85" cy="256.47" cx="813.59" class="cls-2"></circle>
      <path d="m814.21,255.25c-.19-.09-.38-.13-.58-.13-.24,0-.46.06-.66.18-.21.12-.36.28-.47.48-.11.2-.17.43-.17.68,0,.4.12.72.36.97s.55.38.93.38c.2,0,.39-.03.55-.11s.33-.2.51-.38l-.31-.35c-.13.14-.26.24-.37.29-.11.05-.23.08-.37.08-.16,0-.3-.04-.43-.11-.13-.08-.23-.18-.3-.31s-.11-.29-.11-.46c0-.25.08-.45.24-.62.16-.17.36-.25.59-.25.28,0,.52.12.74.37l.32-.33c-.13-.17-.3-.29-.48-.38" class="cls-6"></path>
      <path d="m840.21,240.43c0,.47-.14,1.59-1,2.28-.86.69-1.82.86-2.76.74-.93-.12-1.42-.95-1.39-1.7.03-.75.35-1.4,1.49-1.71,1.14-.31,2.46-.47,3.65-1.02v1.41Zm.35-8.42c-2.79-.64-5.04-.27-6.16.3s-2.29,1.61-2.4,3.27h3.58s.4-.96,1.92-.99c1.52-.03,2.47.33,2.63,1.01.16.68-.41,1.2-1.34,1.44-.93.23-2.42.39-3.47.61-1.04.22-2.93,1-3.39,2.26-.46,1.26-.47,2.97.04,4.13.51,1.16,2.24,2.37,4.51,2.3,2.28-.07,4.1-.22,5.44-1.44s1.76-2.49,1.76-3.81.01-5.32.01-5.77-.35-2.68-3.14-3.32" class="cls-8"></path>
    </g>
    <g class="cls-9">
      <rect height="13.72" width="44.22" y="217.35" x="781.14" class="cls-14"></rect>
    </g>
    <g class="cls-7">
      <path d="m828.61,228.11h-2.04v18.23h3.77v-16.5c0-.95-.78-1.73-1.73-1.73" class="cls-8"></path>
      <path d="m823.63,232.24h-1.99v14.1h3.68v-12.41c0-.93-.76-1.69-1.69-1.69" class="cls-8"></path>
      <path d="m818.11,238.61c-1.27-.77-2.84-1.02-4.71-1.48-1.87-.46-2.32-.94-2.32-1.39,0-.45.26-.91.79-1.04.53-.14,1.4-.24,2.29-.04.89.2,1.36,1.07,1.58,1.29.22.22.61.38.89.38h2.57c-.09-1.53-.57-2.66-1.68-3.47-1.11-.81-2.48-1.27-5.27-1.11-2.79.16-4.28,1.6-4.75,3.24-.47,1.64.03,3.32,1.34,4.17,1.31.85,3.49,1.29,4.82,1.57,1.33.28,2.36.7,2.29,1.58-.07.89-1.56,1.35-3.34,1.12-1.78-.22-1.96-2.05-1.96-2.05h-3.59c-.12,2.34,1,3.62,2.45,4.29,1.45.68,3.93.92,6.56.34,2.63-.58,3.63-2.45,3.64-4.1.01-1.65-.33-2.53-1.6-3.31" class="cls-8"></path>
      <path d="m804.24,238.61c-1.27-.77-2.84-1.02-4.71-1.48-1.87-.46-2.32-.94-2.32-1.39,0-.45.26-.91.79-1.04.53-.14,1.4-.24,2.29-.04.89.2,1.36,1.07,1.58,1.29.22.22.61.38.89.38h2.57c-.09-1.53-.57-2.66-1.68-3.47-1.11-.81-2.48-1.27-5.27-1.11-2.79.16-4.28,1.6-4.75,3.24-.47,1.64.03,3.32,1.34,4.17,1.31.85,3.49,1.29,4.82,1.57,1.33.28,2.36.7,2.29,1.58-.07.89-1.56,1.35-3.34,1.12-1.78-.22-1.96-2.05-1.96-2.05h-3.59c-.12,2.34,1,3.62,2.45,4.29,1.45.68,3.93.92,6.56.34,2.63-.58,3.63-2.45,3.64-4.1.01-1.65-.33-2.53-1.6-3.31" class="cls-8"></path>
      <path d="m782.73,243.09c-3.63,0-5.23-2.84-5.23-6.33s1.76-6.32,5.24-6.32,5.24,2.83,5.24,6.32-1.62,6.33-5.25,6.33m0-15.92c-5.99,0-9.03,4.29-9.03,9.57s2.76,9.6,9.02,9.6,9.05-4.31,9.05-9.6-3.04-9.57-9.03-9.57" class="cls-8"></path>
      <path d="m841.74,252.17c.19-.04.37-.1.54-.19v-.74c-.21.1-.4.17-.59.21-.19.04-.39.07-.6.07-.27,0-.49-.08-.64-.23-.15-.15-.23-.37-.24-.64h2.28v-.47c0-.5-.14-.89-.42-1.18-.28-.28-.67-.43-1.16-.43s-.93.16-1.23.48c-.3.32-.44.78-.44,1.37s.16,1.02.48,1.33c.32.31.76.47,1.33.47.28,0,.51-.02.7-.06m-.35-2.72c.12.13.18.31.19.55h-1.35c.02-.24.08-.42.2-.55.12-.13.28-.19.48-.19s.37.06.49.19m-2.79,1.22c-.06-.13-.16-.24-.28-.33-.13-.1-.33-.2-.61-.31-.31-.12-.51-.22-.6-.28-.09-.06-.14-.14-.14-.22,0-.15.14-.23.43-.23.16,0,.32.02.47.07.15.05.32.11.5.19l.29-.69c-.4-.18-.81-.28-1.24-.28s-.79.09-1.03.26c-.24.17-.37.41-.37.73,0,.18.03.34.09.46.06.12.15.24.28.33.13.1.33.2.6.31.19.08.34.15.45.21.11.06.19.11.24.16.05.05.07.11.07.19,0,.2-.18.3-.52.3-.17,0-.37-.03-.59-.09s-.43-.13-.6-.21v.8c.16.07.33.12.51.15s.4.05.66.05c.5,0,.88-.09,1.13-.28.25-.19.38-.47.38-.83,0-.18-.03-.32-.09-.45m-3.38,1.5v-3.53h-.96v1.66c0,.42-.06.72-.18.89-.12.18-.31.27-.58.27-.2,0-.34-.06-.43-.19-.09-.13-.14-.32-.14-.57v-2.06h-.96v2.3c0,.42.1.74.31.96.21.22.52.33.94.33.24,0,.46-.05.65-.13.19-.09.34-.22.44-.38h.05l.13.45h.74Zm-4.65-4.62l-1.72,4.62h.88l1.72-4.62h-.87Zm-4.44,2.85c0-.37.06-.63.17-.8.12-.17.29-.25.53-.25.18,0,.32.06.4.19.09.13.13.32.13.57v2.06h.97v-2.3c0-.45-.1-.78-.31-.99-.21-.2-.51-.31-.91-.31-.23,0-.44.05-.62.14-.18.09-.32.22-.42.38h-.08c-.19-.34-.54-.52-1.07-.52-.23,0-.44.05-.62.14-.18.09-.32.22-.41.38h-.05l-.13-.45h-.73v3.53h.96v-1.66c0-.41.06-.71.17-.89.11-.18.29-.27.54-.27.18,0,.32.06.4.19.08.13.13.32.13.57v2.06h.96v-1.77Zm-4.16-.97c-.14-.28-.34-.49-.6-.64-.26-.15-.56-.22-.9-.22-.54,0-.97.16-1.27.48-.3.32-.45.77-.45,1.34,0,.37.07.69.21.97.14.28.34.49.6.64.26.15.56.22.9.22.54,0,.96-.16,1.27-.49s.45-.77.45-1.35c0-.37-.07-.69-.21-.97m-2.06.18c.11-.17.3-.26.56-.26s.44.09.56.26c.11.17.17.44.17.79s-.06.62-.17.79c-.11.18-.3.27-.56.27s-.44-.09-.56-.27c-.12-.18-.17-.44-.17-.79s.06-.61.17-.79m-2.22,2.57c.16-.04.32-.11.47-.2v-.82c-.16.11-.32.18-.47.23-.16.05-.33.07-.51.07-.5,0-.75-.34-.75-1.03s.25-1.07.75-1.07c.13,0,.26.02.39.06.13.04.27.09.42.15l.28-.74c-.32-.16-.69-.24-1.1-.24-.56,0-.99.16-1.28.48-.3.32-.45.77-.45,1.38,0,1.21.55,1.81,1.65,1.81.24,0,.44-.02.6-.06m-3.87-.06c.1.09.23.14.41.14s.31-.05.4-.14c.1-.1.15-.23.15-.39s-.05-.31-.14-.4c-.1-.09-.23-.14-.41-.14s-.32.05-.41.14c-.09.09-.14.22-.14.4s.05.3.15.4m-1.95-1.29c0,.21-.07.38-.2.51-.13.13-.31.19-.53.19-.31,0-.47-.14-.47-.41,0-.19.07-.33.2-.42.14-.09.35-.14.63-.15h.37s0,.28,0,.28Zm.96,1.34v-2.35c0-.42-.13-.74-.38-.94-.25-.21-.62-.31-1.09-.31s-.95.11-1.35.32l.32.65c.38-.17.71-.26.99-.26.37,0,.55.18.55.54v.15l-.61.02c-.53.02-.92.12-1.19.3-.26.18-.39.45-.39.83s.1.63.29.83c.19.19.46.29.8.29.28,0,.5-.04.67-.12.17-.08.34-.22.5-.42h.02l.19.48h.67Zm-3.92-4.91h-.96v4.91h.96v-4.91Zm-1.97,1.38h-.96v3.53h.96v-3.53Zm-.48-.44c.18,0,.31-.04.39-.12.09-.08.13-.2.13-.35,0-.31-.17-.47-.52-.47s-.52.16-.52.47.17.47.52.47m-1.32,2.47c-.06-.13-.16-.24-.28-.33-.13-.1-.33-.2-.61-.31-.31-.12-.51-.22-.6-.28-.09-.06-.14-.14-.14-.22,0-.15.14-.23.43-.23.16,0,.32.02.47.07.15.05.32.11.5.19l.29-.69c-.4-.18-.82-.28-1.24-.28-.45,0-.79.09-1.03.26-.24.17-.36.41-.36.73,0,.18.03.34.09.46.06.12.15.24.28.33.13.1.33.2.6.31.19.08.34.15.45.21.11.06.19.11.24.16.05.05.07.11.07.19,0,.2-.17.3-.52.3-.17,0-.37-.03-.59-.09-.22-.06-.43-.13-.6-.21v.8c.16.07.33.12.51.15s.4.05.66.05c.5,0,.88-.09,1.13-.28.25-.19.38-.47.38-.83,0-.18-.03-.32-.09-.45m-3.21,0c-.06-.13-.16-.24-.28-.33-.13-.1-.33-.2-.61-.31-.31-.12-.51-.22-.6-.28-.09-.06-.14-.14-.14-.22,0-.15.14-.23.43-.23.16,0,.32.02.47.07.15.05.32.11.5.19l.29-.69c-.4-.18-.82-.28-1.24-.28-.45,0-.79.09-1.03.26-.24.17-.36.41-.36.73,0,.18.03.34.09.46.06.12.15.24.28.33.13.1.33.2.6.31.19.08.34.15.45.21.11.06.19.11.24.16.05.05.07.11.07.19,0,.2-.18.3-.52.3-.17,0-.37-.03-.59-.09-.22-.06-.43-.13-.6-.21v.8c.16.07.33.12.51.15.18.03.4.05.66.05.5,0,.88-.09,1.13-.28.25-.19.38-.47.38-.83,0-.18-.03-.32-.09-.45m-3.37-1.24c-.14-.28-.34-.49-.6-.64-.26-.15-.56-.22-.9-.22-.55,0-.97.16-1.27.48-.3.32-.45.77-.45,1.34,0,.37.07.69.21.97s.34.49.6.64c.26.15.56.22.9.22.54,0,.96-.16,1.27-.49.3-.32.45-.77.45-1.35,0-.37-.07-.69-.21-.97m-2.06.18c.11-.17.3-.26.56-.26s.45.09.56.26c.11.17.17.44.17.79s-.06.62-.17.79c-.11.18-.3.27-.55.27s-.44-.09-.56-.27c-.12-.18-.17-.44-.17-.79s.06-.61.17-.79m-2.77,2.5c.1.09.23.14.41.14s.31-.05.4-.14c.1-.1.15-.23.15-.39s-.05-.31-.14-.4c-.1-.09-.23-.14-.41-.14s-.32.05-.41.14c-.09.09-.14.22-.14.4s.05.3.15.4m-1.59.05l1.02-3.53h-.94l-.42,1.56c-.02.09-.06.27-.1.54-.05.26-.08.47-.1.62h-.02c0-.06-.01-.14-.02-.23-.01-.1-.03-.2-.05-.3s-.03-.2-.05-.29c-.02-.09-.03-.16-.04-.2l-.41-1.69h-1.06l-.44,1.69-.05.27c-.07.35-.1.6-.11.76h-.02c-.07-.49-.13-.88-.2-1.16l-.41-1.56h-.96l1,3.53h1.04l.64-2.79h.02l.37,1.56.27,1.23h1.05Zm-5.53,0l1.02-3.53h-.94l-.42,1.56c-.02.09-.06.27-.11.54-.05.26-.08.47-.1.62h-.02c0-.06-.01-.14-.02-.23-.01-.1-.03-.2-.05-.3s-.03-.2-.05-.29c-.02-.09-.03-.16-.04-.2l-.41-1.69h-1.06l-.44,1.69-.05.27c-.07.35-.1.6-.11.76h-.02c-.07-.49-.13-.88-.2-1.16l-.41-1.56h-.96l1,3.53h1.04l.64-2.79h.02l.37,1.56.27,1.23h1.05Zm-5.53,0l1.02-3.53h-.94l-.42,1.56c-.02.09-.06.27-.11.54-.05.26-.08.47-.1.62h-.02c0-.06,0-.14-.02-.23-.01-.1-.03-.2-.05-.3-.02-.1-.03-.2-.05-.29-.02-.09-.03-.16-.04-.2l-.41-1.69h-1.06l-.44,1.69-.05.27c-.07.35-.1.6-.11.76h-.02c-.07-.49-.13-.88-.2-1.16l-.41-1.56h-.96l1,3.53h1.04l.64-2.79h.02l.37,1.56.27,1.23h1.05Z" class="cls-8"></path>
      <path d="m829.66,257.49c-.07-.07-.11-.16-.11-.29,0-.17.06-.3.19-.38.13-.08.33-.13.61-.14l.36-.02v.24c0,.22-.06.39-.19.51-.13.12-.3.18-.52.18-.15,0-.26-.03-.33-.1m1.64.51v-1.88c0-.33-.09-.58-.27-.73s-.45-.23-.8-.23c-.16,0-.33.02-.51.06-.18.04-.35.1-.5.18l.19.43c.12-.06.25-.11.38-.15s.27-.06.41-.06c.18,0,.3.04.39.13.08.09.12.22.12.4v.15l-.48.02c-.44.01-.76.09-.98.24-.21.15-.32.36-.32.65,0,.27.08.48.23.63s.37.22.64.22c.21,0,.39-.03.52-.09.14-.06.27-.18.41-.35h.02l.12.39h.42Zm-3.02-3.93h-.59v3.93h.59v-3.93Zm-1.98.63c.06.06.14.09.25.09s.19-.03.24-.09c.06-.06.09-.14.09-.24,0-.11-.03-.19-.09-.24-.06-.06-.14-.09-.24-.09s-.19.03-.25.09c-.06.06-.09.14-.09.24s.03.18.09.24m.54.5h-.59v2.79h.59v-2.79Zm-1.31,1.65c-.05-.1-.13-.18-.23-.26-.1-.07-.27-.16-.5-.25-.27-.11-.45-.19-.53-.25-.08-.06-.12-.13-.12-.22,0-.18.16-.27.47-.27.2,0,.46.06.76.19l.19-.45c-.29-.13-.6-.2-.93-.2s-.59.07-.79.2c-.19.13-.29.32-.29.56,0,.2.06.36.17.49.11.12.33.25.65.37.17.06.29.12.39.17.09.05.16.1.2.15.04.05.06.11.06.18,0,.22-.18.33-.55.33-.28,0-.59-.08-.92-.23v.51c.23.11.53.17.9.17s.65-.07.85-.22c.2-.15.3-.36.3-.63,0-.13-.02-.25-.08-.35m-2.52,0c-.05-.1-.13-.18-.23-.26-.1-.07-.27-.16-.5-.25-.28-.11-.45-.19-.53-.25-.08-.06-.12-.13-.12-.22,0-.18.16-.27.47-.27.21,0,.46.06.76.19l.19-.45c-.29-.13-.6-.2-.93-.2s-.59.07-.79.2c-.19.13-.29.32-.29.56,0,.2.06.36.17.49.11.12.33.25.65.37.17.06.29.12.39.17.09.05.16.1.2.15.04.05.06.11.06.18,0,.22-.18.33-.55.33-.28,0-.59-.08-.92-.23v.51c.23.11.52.17.9.17s.65-.07.85-.22c.2-.15.3-.36.3-.63,0-.13-.03-.25-.08-.35m-5.07-1.74c.18-.23.46-.35.82-.35s.63.12.81.35c.18.23.27.58.27,1.03s-.09.81-.27,1.04c-.18.23-.45.35-.81.35s-.63-.12-.81-.35c-.18-.24-.28-.58-.28-1.03s.09-.8.28-1.03m2.09-.37c-.3-.33-.72-.5-1.27-.5s-.99.16-1.29.49c-.3.33-.45.8-.45,1.4s.15,1.08.45,1.41c.3.33.73.5,1.28.5s.98-.17,1.28-.5c.3-.33.45-.8.45-1.4s-.15-1.07-.45-1.4m-10.88,2.72c-.07-.07-.11-.17-.11-.32v-1.49h.8v-.45h-.8v-.62h-.37l-.2.59-.41.22v.26h.38v1.5c0,.59.28.89.84.89.11,0,.22,0,.32-.03.1-.02.19-.04.25-.07v-.45c-.15.05-.29.07-.43.07-.12,0-.21-.03-.28-.1m-1.58-1.29c0-.68-.34-1.02-1.02-1.02-.19,0-.36.04-.5.11-.14.07-.26.18-.34.31h-.04c.02-.18.03-.35.03-.51v-1h-.59v3.93h.59v-1.39c0-.35.06-.6.18-.75s.3-.22.55-.22c.19,0,.33.05.41.16.09.11.13.27.13.48v1.72h.6v-1.82Zm-4.78-.5c.09-.1.22-.15.39-.15s.3.05.39.15c.09.1.13.24.13.42,0,.37-.17.55-.52.55-.17,0-.3-.05-.39-.14-.09-.09-.14-.23-.14-.4,0-.19.04-.33.13-.43m-.24,2.43c.1-.08.23-.12.4-.12h.45c.24,0,.4.03.48.08.09.05.13.14.13.26,0,.15-.08.28-.24.37-.16.09-.4.14-.72.14-.21,0-.37-.03-.49-.1-.12-.07-.17-.17-.17-.3,0-.14.05-.24.15-.32m1.08-2.9s-.11-.02-.2-.03c-.09-.01-.17-.02-.25-.02-.35,0-.63.08-.82.25-.19.17-.29.4-.29.7,0,.19.05.35.14.49.09.14.21.24.35.3-.12.07-.2.14-.26.22-.06.07-.09.16-.09.26,0,.08.03.16.08.24.05.08.12.13.2.16-.19.05-.35.13-.46.24-.11.12-.16.26-.16.43,0,.25.1.44.3.58.2.13.49.2.87.2.49,0,.87-.09,1.13-.26s.39-.42.39-.73c0-.25-.08-.44-.24-.57-.16-.13-.39-.2-.7-.2h-.49c-.16,0-.27-.02-.33-.05-.06-.03-.09-.08-.09-.14,0-.11.06-.2.19-.28.07.01.15.02.24.02.35,0,.62-.08.82-.25.2-.16.3-.39.3-.68,0-.1-.02-.19-.04-.27-.03-.09-.06-.16-.11-.22l.48-.09v-.33h-.97Zm-2.78-.5c.06.06.14.09.25.09s.19-.03.24-.09c.06-.06.09-.14.09-.24,0-.11-.03-.19-.09-.24-.06-.06-.14-.09-.24-.09s-.19.03-.25.09c-.06.06-.09.14-.09.24s.03.18.09.24m.54.5h-.59v2.79h.59v-2.79Zm-1.89.1c-.15.1-.27.23-.36.4h-.03l-.08-.49h-.46v2.79h.59v-1.46c0-.25.07-.45.22-.6.15-.15.34-.23.58-.23.09,0,.18,0,.26.03l.06-.55c-.08-.02-.18-.02-.3-.02-.17,0-.33.05-.48.15m-3.01,2.7l-.1.26c-.12.33-.32.5-.6.5-.11,0-.22,0-.31-.03v.47c.12.03.25.04.38.04.51,0,.87-.29,1.09-.87l1.19-3.16h-.64c-.39,1.12-.6,1.75-.64,1.88-.04.13-.07.24-.08.34h-.02c-.03-.2-.09-.41-.17-.64l-.57-1.58h-.65l1.12,2.79Zm-2.16-2.12c.11.16.17.4.17.71s-.06.55-.17.72-.27.25-.48.25c-.24,0-.42-.08-.53-.23-.11-.15-.16-.4-.16-.74v-.09c0-.3.06-.52.16-.66.11-.14.28-.21.52-.21.21,0,.38.08.49.24m.48,1.79c.2-.26.3-.61.3-1.07s-.1-.81-.29-1.06c-.19-.25-.47-.38-.81-.38-.37,0-.65.14-.83.42h-.03c-.04-.2-.07-.32-.08-.37h-.48v4.04h.59v-1.14c0-.05-.01-.19-.03-.43h.03c.2.25.47.38.82.38s.62-.13.82-.38m-4.78-1.78c.11-.16.29-.25.54-.25.48,0,.71.32.71.96s-.24.97-.71.97-.71-.32-.71-.97c0-.31.06-.54.17-.71m1.51-.34c-.24-.26-.56-.39-.96-.39s-.75.13-.98.38c-.23.25-.35.61-.35,1.06,0,.29.05.55.16.77.11.22.26.39.46.51.2.12.43.18.69.18.42,0,.74-.13.98-.38s.35-.61.35-1.07-.12-.79-.35-1.05m-3.33-.71c.14.05.27.1.39.16l.22-.5c-.32-.16-.67-.24-1.05-.24s-.67.08-.94.23c-.27.15-.47.37-.61.66-.14.29-.21.62-.21,1.01,0,.61.14,1.08.43,1.4.29.33.7.49,1.25.49.37,0,.69-.05.99-.16v-.52c-.16.05-.31.09-.46.12-.15.03-.3.05-.45.05-.36,0-.64-.12-.83-.35-.19-.23-.29-.58-.29-1.03s.1-.77.3-1.02c.2-.25.47-.37.82-.37.15,0,.3.02.44.07" class="cls-6"></path>
    </g>
  </g>
  <g data-sanitized-data-name="Layer 2" data-name="Layer 2" id="Layer_2">
    <path d="m641.5,50.87c-23.19.62-45.29,2.34-65.33,6.56-9.56-4.22-20.1-6.56-31.17-6.56-43.63,0-79,36.26-79,81s35.37,81,79,81c11.07,0,21.61-2.34,31.17-6.56,20.04,4.22,42.13,6.56,65.33,6.56,91.4,0,165.5-36.26,165.5-81s-58-83.87-165.5-81Z" class="cls-12"></path>
    <path d="m388.5,131.5c12.86-28.88,21.28-33.98,28-34,23.74-.07,33.19,63.26,60,65,14.86.96,28.03-17.44,36-31" class="cls-4"></path>
    <g>
      <line y2="152.12" x2="482.75" y1="144.5" x1="528.5" class="cls-1"></line>
      <polygon points="486.13 148.12 483.34 152.03 487.24 154.81 484.4 155.29 480.5 152.5 483.29 148.6 486.13 148.12" class="cls-13"></polygon>
    </g>
    <circle r="34" cy="131" cx="568" class="cls-11"></circle>
    <g>
      <line y2="131" x2="516.31" y1="131" x1="387" class="cls-3"></line>
      <polygon points="510.34 136.09 515.43 131 510.34 125.91 514.65 125.91 519.74 131 514.65 136.09 510.34 136.09" class="cls-13"></polygon>
    </g>
    <g>
      <line y2="179.21" x2="501.39" y1="157" x1="534" class="cls-1"></line>
      <polygon points="502.77 174.17 501.88 178.88 506.59 179.77 504.21 181.39 499.5 180.5 500.39 175.79 502.77 174.17" class="cls-13"></polygon>
    </g>
    <g>
      <line y2="198.58" x2="524.74" y1="168.75" x1="544.04" class="cls-1"></line>
      <polygon points="524.06 193.39 525.06 198.08 529.75 197.08 528.19 199.49 523.5 200.5 522.49 195.81 524.06 193.39" class="cls-13"></polygon>
    </g>
    <g>
      <line y2="202.23" x2="557.79" y1="173.5" x1="561.5" class="cls-1"></line>
      <polygon points="554.94 197.85 557.87 201.65 561.67 198.72 561.3 201.57 557.5 204.5 554.57 200.7 554.94 197.85" class="cls-13"></polygon>
    </g>
    <g>
      <line y2="191.25" x2="578.09" y1="173.5" x1="574.85" class="cls-1"></line>
      <polygon points="574.04 187.94 577.98 190.67 580.71 186.72 581.23 189.56 578.5 193.5 574.56 190.77 574.04 187.94" class="cls-13"></polygon>
    </g>
    <g>
      <line y2="202.87" x2="618.29" y1="168.75" x1="584.93" class="cls-1"></line>
      <polygon points="613.08 202.39 617.88 202.44 617.93 197.65 619.94 199.71 619.89 204.5 615.09 204.45 613.08 202.39" class="cls-13"></polygon>
    </g>
    <g>
      <line y2="203.43" x2="672.98" y1="161.5" x1="593.5" class="cls-1"></line>
      <polygon points="667.87 204.57 672.46 203.16 671.04 198.58 673.58 199.92 675 204.5 670.42 205.92 667.87 204.57" class="cls-13"></polygon>
    </g>
    <g>
      <line y2="192.81" x2="728.53" y1="152.5" x1="602" class="cls-1"></line>
      <polygon points="723.7 194.83 727.96 192.63 725.76 188.37 728.5 189.24 730.7 193.5 726.44 195.7 723.7 194.83" class="cls-13"></polygon>
    </g>
    <g>
      <line y2="164.69" x2="777.03" y1="141.5" x1="605.5" class="cls-1"></line>
      <polygon points="772.63 167.52 776.45 164.61 773.54 160.8 776.39 161.19 779.3 165 775.48 167.91 772.63 167.52" class="cls-13"></polygon>
    </g>
    <g>
      <line y2="131" x2="797.16" y1="131" x1="605.5" class="cls-1"></line>
      <polygon points="793.17 134.39 796.57 131 793.17 127.61 796.05 127.61 799.44 131 796.05 134.39 793.17 134.39" class="cls-13"></polygon>
    </g>
    <g>
      <line y2="97.29" x2="777.03" y1="119.07" x1="605.5" class="cls-1"></line>
      <polygon points="773.5 101.15 776.44 97.36 772.65 94.43 775.51 94.06 779.3 97 776.36 100.79 773.5 101.15" class="cls-13"></polygon>
    </g>
    <g>
      <line y2="67.21" x2="728.33" y1="108.04" x1="602.41" class="cls-1"></line>
      <polygon points="725.58 71.66 727.76 67.39 723.49 65.21 726.23 64.32 730.5 66.5 728.32 70.77 725.58 71.66" class="cls-13"></polygon>
    </g>
    <g>
      <line y2="57.09" x2="670.62" y1="97" x1="597.37" class="cls-1"></line>
      <polygon points="668.75 61.98 670.1 57.38 665.5 56.02 668.03 54.64 672.63 56 671.27 60.6 668.75 61.98" class="cls-13"></polygon>
    </g>
    <g>
      <line y2="60.25" x2="618.27" y1="93.59" x1="584.93" class="cls-1"></line>
      <polygon points="617.85 65.46 617.85 60.66 613.06 60.67 615.09 58.63 619.89 58.63 619.89 63.42 617.85 65.46" class="cls-13"></polygon>
    </g>
    <g>
      <line y2="68.75" x2="578.1" y1="87.27" x1="574.85" class="cls-1"></line>
      <polygon points="580.75 73.26 578 69.33 574.08 72.09 574.57 69.25 578.5 66.5 581.25 70.43 580.75 73.26" class="cls-13"></polygon>
    </g>
    <g>
      <line y2="60.9" x2="557.78" y1="90.63" x1="561.5" class="cls-1"></line>
      <polygon points="561.64 64.43 557.86 61.48 554.91 65.27 554.56 62.41 557.5 58.63 561.28 61.57 561.64 64.43" class="cls-13"></polygon>
    </g>
    <g>
      <line y2="65.26" x2="524.79" y1="97" x1="546.41" class="cls-1"></line>
      <polygon points="529.83 66.64 525.12 65.75 524.23 70.46 522.61 68.08 523.5 63.37 528.21 64.26 529.83 66.64" class="cls-13"></polygon>
    </g>
    <g>
      <line y2="81.53" x2="497.29" y1="108.04" x1="533.77" class="cls-1"></line>
      <polygon points="502.51 81.13 497.77 81.88 498.52 86.61 496.19 84.92 495.44 80.19 500.18 79.44 502.51 81.13" class="cls-13"></polygon>
    </g>
    <g>
      <line y2="108.55" x2="482.73" y1="119.07" x1="528.5" class="cls-1"></line>
      <polygon points="487.37 106.14 483.3 108.68 485.85 112.75 483.04 112.1 480.5 108.04 484.56 105.49 487.37 106.14" class="cls-13"></polygon>
    </g>
    <g>
      <path d="m585.18,30.96l-4.84-12.66h-.08c.09,1,.14,2.19.14,3.57v9.08h-1.53v-14.28h2.5l4.52,11.78h.08l4.56-11.78h2.48v14.28h-1.66v-9.2c0-1.05.05-2.2.14-3.44h-.08l-4.88,12.64h-1.34Z"></path>
      <path d="m596.54,17.35c0-.37.09-.64.27-.82s.41-.26.68-.26.49.09.67.26.28.45.28.81-.09.64-.28.82-.41.27-.67.27-.5-.09-.68-.27-.27-.45-.27-.82Zm1.76,13.6h-1.62v-10.7h1.62v10.7Z"></path>
      <path d="m606.25,31.15c-1.58,0-2.83-.48-3.75-1.45s-1.37-2.3-1.37-4.01.42-3.1,1.27-4.11,1.99-1.52,3.42-1.52c1.34,0,2.4.44,3.18,1.32s1.17,2.05,1.17,3.49v1.03h-7.37c.03,1.26.35,2.21.95,2.86s1.45.98,2.54.98c1.15,0,2.29-.24,3.42-.72v1.45c-.57.25-1.12.42-1.63.53s-1.13.16-1.85.16Zm-.44-9.74c-.86,0-1.54.28-2.06.84s-.81,1.33-.9,2.32h5.6c0-1.02-.23-1.81-.68-2.35s-1.11-.82-1.95-.82Z"></path>
      <path d="m626.45,27.16c0,1.26-.46,2.24-1.37,2.94s-2.15,1.05-3.71,1.05c-1.69,0-3-.22-3.91-.65v-1.6c.59.25,1.22.44,1.91.59s1.37.21,2.05.21c1.11,0,1.94-.21,2.5-.63s.84-1,.84-1.75c0-.49-.1-.9-.3-1.22s-.53-.61-1-.87-1.17-.57-2.12-.91c-1.33-.48-2.28-1.04-2.85-1.69s-.85-1.5-.85-2.55c0-1.1.41-1.98,1.24-2.63s1.92-.98,3.28-.98,2.72.26,3.92.78l-.52,1.45c-1.18-.49-2.32-.74-3.44-.74-.88,0-1.57.19-2.06.57s-.74.9-.74,1.57c0,.49.09.9.27,1.22s.49.61.92.87,1.1.56,1.99.87c1.5.53,2.53,1.11,3.09,1.72s.84,1.41.84,2.38Z"></path>
      <path d="m633.4,31.15c-1.55,0-2.75-.48-3.6-1.43s-1.27-2.3-1.27-4.05.43-3.17,1.29-4.15,2.09-1.46,3.69-1.46c.51,0,1.03.06,1.54.17s.92.24,1.21.39l-.5,1.38c-.36-.14-.75-.26-1.17-.36s-.8-.14-1.12-.14c-2.17,0-3.26,1.39-3.26,4.16,0,1.31.27,2.32.8,3.03s1.32,1.05,2.36,1.05c.89,0,1.81-.19,2.74-.58v1.44c-.72.37-1.62.56-2.71.56Z"></path>
      <path d="m645.23,30.96l-.32-1.52h-.08c-.53.67-1.07,1.12-1.6,1.36s-1.19.36-1.99.36c-1.06,0-1.89-.27-2.5-.82s-.9-1.32-.9-2.33c0-2.16,1.73-3.29,5.19-3.4l1.82-.06v-.66c0-.84-.18-1.46-.54-1.86s-.94-.6-1.73-.6c-.89,0-1.9.27-3.03.82l-.5-1.24c.53-.29,1.11-.51,1.73-.67s1.26-.24,1.89-.24c1.28,0,2.22.28,2.84.85s.92,1.47.92,2.72v7.3h-1.2Zm-3.66-1.14c1.01,0,1.8-.28,2.38-.83s.86-1.33.86-2.32v-.97l-1.62.07c-1.29.05-2.22.25-2.79.6s-.85.91-.85,1.66c0,.59.18,1.03.53,1.34s.85.46,1.49.46Z"></path>
      <path d="m653.22,29.81c.29,0,.56-.02.83-.06s.48-.09.63-.13v1.24c-.18.08-.43.15-.78.21s-.65.08-.92.08c-2.07,0-3.11-1.09-3.11-3.27v-6.37h-1.53v-.78l1.53-.67.68-2.29h.94v2.48h3.11v1.26h-3.11v6.3c0,.64.15,1.14.46,1.48s.73.52,1.26.52Z"></path>
      <path d="m660.29,29.81c.29,0,.56-.02.83-.06s.48-.09.63-.13v1.24c-.18.08-.43.15-.78.21s-.65.08-.92.08c-2.07,0-3.11-1.09-3.11-3.27v-6.37h-1.53v-.78l1.53-.67.68-2.29h.94v2.48h3.11v1.26h-3.11v6.3c0,.64.15,1.14.46,1.48s.73.52,1.26.52Z"></path>
      <path d="m668.41,31.15c-1.58,0-2.83-.48-3.75-1.45s-1.37-2.3-1.37-4.01.42-3.1,1.27-4.11,1.99-1.52,3.42-1.52c1.34,0,2.4.44,3.18,1.32s1.17,2.05,1.17,3.49v1.03h-7.37c.03,1.26.35,2.21.95,2.86s1.45.98,2.54.98c1.15,0,2.29-.24,3.42-.72v1.45c-.57.25-1.12.42-1.63.53s-1.13.16-1.85.16Zm-.44-9.74c-.86,0-1.54.28-2.06.84s-.81,1.33-.9,2.32h5.6c0-1.02-.23-1.81-.68-2.35s-1.11-.82-1.95-.82Z"></path>
      <path d="m679.99,20.06c.48,0,.9.04,1.28.12l-.22,1.5c-.44-.1-.83-.15-1.17-.15-.87,0-1.61.35-2.22,1.05s-.92,1.58-.92,2.63v5.74h-1.62v-10.7h1.34l.19,1.98h.08c.4-.7.88-1.23,1.44-1.61s1.17-.57,1.85-.57Z"></path>
      <path d="m683.14,17.35c0-.37.09-.64.27-.82s.41-.26.68-.26.49.09.67.26.28.45.28.81-.09.64-.28.82-.41.27-.67.27-.5-.09-.68-.27-.27-.45-.27-.82Zm1.76,13.6h-1.62v-10.7h1.62v10.7Z"></path>
      <path d="m695.66,30.96v-6.92c0-.87-.2-1.52-.6-1.95s-1.02-.64-1.87-.64c-1.12,0-1.94.3-2.46.91s-.78,1.6-.78,3v5.62h-1.62v-10.7h1.32l.26,1.46h.08c.33-.53.8-.94,1.4-1.23s1.27-.43,2-.43c1.29,0,2.26.31,2.91.93s.98,1.62.98,2.98v6.98h-1.62Z"></path>
      <path d="m709.37,20.25v1.03l-1.98.23c.18.23.34.53.49.89s.21.78.21,1.25c0,1.05-.36,1.88-1.07,2.51s-1.7.94-2.95.94c-.32,0-.62-.03-.9-.08-.69.36-1.04.82-1.04,1.38,0,.29.12.51.36.65s.65.21,1.24.21h1.89c1.16,0,2.05.24,2.67.73s.93,1.2.93,2.13c0,1.19-.48,2.09-1.43,2.71s-2.34.93-4.16.93c-1.4,0-2.48-.26-3.24-.78s-1.14-1.26-1.14-2.21c0-.65.21-1.21.62-1.69s1-.8,1.76-.97c-.27-.12-.5-.32-.69-.58s-.28-.56-.28-.91c0-.39.1-.73.31-1.03s.54-.58.99-.85c-.55-.23-1-.62-1.35-1.16s-.52-1.17-.52-1.88c0-1.17.35-2.08,1.05-2.71s1.7-.95,2.99-.95c.56,0,1.06.06,1.51.2h3.7Zm-8.54,12.5c0,.58.24,1.02.73,1.32s1.19.45,2.1.45c1.36,0,2.37-.2,3.02-.61s.98-.96.98-1.66c0-.58-.18-.98-.54-1.21s-1.03-.34-2.02-.34h-1.94c-.74,0-1.31.18-1.72.53s-.62.86-.62,1.51Zm.88-9.07c0,.75.21,1.31.63,1.7s1.01.58,1.77.58c1.58,0,2.37-.77,2.37-2.3s-.8-2.41-2.4-2.41c-.76,0-1.35.21-1.76.62s-.62,1.02-.62,1.83Z"></path>
    </g>
    <g>
      <path d="m141.14,25.02v5.94h-1.66v-14.28h3.92c1.75,0,3.04.34,3.88,1.01s1.25,1.68,1.25,3.03c0,1.89-.96,3.16-2.87,3.83l3.88,6.42h-1.96l-3.46-5.94h-2.98Zm0-1.43h2.28c1.17,0,2.03-.23,2.58-.7s.82-1.16.82-2.09-.28-1.62-.83-2.04-1.45-.62-2.68-.62h-2.16v5.46Z"></path>
      <path d="m158.18,30.96l-.32-1.52h-.08c-.53.67-1.07,1.12-1.6,1.36s-1.19.36-1.99.36c-1.06,0-1.89-.27-2.5-.82s-.9-1.32-.9-2.33c0-2.16,1.73-3.29,5.19-3.4l1.82-.06v-.66c0-.84-.18-1.46-.54-1.86s-.94-.6-1.73-.6c-.89,0-1.9.27-3.03.82l-.5-1.24c.53-.29,1.11-.51,1.73-.67s1.26-.24,1.89-.24c1.28,0,2.22.28,2.84.85s.92,1.47.92,2.72v7.3h-1.2Zm-3.66-1.14c1.01,0,1.8-.28,2.38-.83s.86-1.33.86-2.32v-.97l-1.62.07c-1.29.05-2.22.25-2.79.6s-.85.91-.85,1.66c0,.59.18,1.03.53,1.34s.85.46,1.49.46Z"></path>
      <path d="m161.02,20.25h1.74l2.34,6.1c.51,1.39.83,2.4.96,3.02h.08c.08-.33.26-.9.53-1.7s1.15-3.28,2.65-7.42h1.74l-4.6,12.19c-.46,1.2-.99,2.06-1.6,2.56s-1.36.76-2.24.76c-.5,0-.98-.06-1.46-.17v-1.3c.36.08.76.12,1.2.12,1.11,0,1.91-.62,2.38-1.88l.6-1.52-4.32-10.76Z"></path>
      <path d="m174.42,30.96h-1.62v-15.2h1.62v15.2Z"></path>
      <path d="m182.38,31.15c-1.58,0-2.83-.48-3.75-1.45s-1.37-2.3-1.37-4.01.42-3.1,1.27-4.11,1.99-1.52,3.42-1.52c1.34,0,2.4.44,3.18,1.32s1.17,2.05,1.17,3.49v1.03h-7.37c.03,1.26.35,2.21.95,2.86s1.45.98,2.54.98c1.15,0,2.29-.24,3.42-.72v1.45c-.57.25-1.12.42-1.63.53s-1.13.16-1.85.16Zm-.44-9.74c-.86,0-1.54.28-2.06.84s-.81,1.33-.9,2.32h5.6c0-1.02-.23-1.81-.68-2.35s-1.11-.82-1.95-.82Z"></path>
      <path d="m188.94,17.35c0-.37.09-.64.27-.82s.41-.26.68-.26.49.09.67.26.28.45.28.81-.09.64-.28.82-.41.27-.67.27-.5-.09-.68-.27-.27-.45-.27-.82Zm1.76,13.6h-1.62v-10.7h1.62v10.7Z"></path>
      <path d="m202.89,20.25v1.03l-1.98.23c.18.23.34.53.49.89s.21.78.21,1.25c0,1.05-.36,1.88-1.07,2.51s-1.7.94-2.95.94c-.32,0-.62-.03-.9-.08-.69.36-1.04.82-1.04,1.38,0,.29.12.51.36.65s.65.21,1.24.21h1.89c1.16,0,2.05.24,2.67.73s.93,1.2.93,2.13c0,1.19-.48,2.09-1.43,2.71s-2.34.93-4.16.93c-1.4,0-2.48-.26-3.24-.78s-1.14-1.26-1.14-2.21c0-.65.21-1.21.62-1.69s1-.8,1.76-.97c-.27-.12-.5-.32-.69-.58s-.28-.56-.28-.91c0-.39.1-.73.31-1.03s.54-.58.99-.85c-.55-.23-1-.62-1.35-1.16s-.52-1.17-.52-1.88c0-1.17.35-2.08,1.05-2.71s1.7-.95,2.99-.95c.56,0,1.06.06,1.51.2h3.7Zm-8.54,12.5c0,.58.24,1.02.73,1.32s1.19.45,2.1.45c1.36,0,2.37-.2,3.02-.61s.98-.96.98-1.66c0-.58-.18-.98-.54-1.21s-1.03-.34-2.02-.34h-1.94c-.74,0-1.31.18-1.72.53s-.62.86-.62,1.51Zm.88-9.07c0,.75.21,1.31.63,1.7s1.01.58,1.77.58c1.58,0,2.37-.77,2.37-2.3s-.8-2.41-2.4-2.41c-.76,0-1.35.21-1.76.62s-.62,1.02-.62,1.83Z"></path>
      <path d="m212.42,30.96v-6.92c0-.87-.2-1.52-.6-1.95s-1.02-.64-1.87-.64c-1.13,0-1.95.31-2.47.92s-.78,1.61-.78,3.01v5.6h-1.62v-15.2h1.62v4.6c0,.55-.03,1.01-.08,1.38h.1c.32-.51.77-.92,1.36-1.22s1.26-.44,2.02-.44c1.31,0,2.29.31,2.94.93s.98,1.61.98,2.96v6.98h-1.62Z"></path>
      <path d="m230.86,27.16c0,1.26-.46,2.24-1.37,2.94s-2.15,1.05-3.71,1.05c-1.69,0-3-.22-3.91-.65v-1.6c.59.25,1.22.44,1.91.59s1.37.21,2.05.21c1.11,0,1.94-.21,2.5-.63s.84-1,.84-1.75c0-.49-.1-.9-.3-1.22s-.53-.61-1-.87-1.17-.57-2.12-.91c-1.33-.48-2.28-1.04-2.85-1.69s-.85-1.5-.85-2.55c0-1.1.41-1.98,1.24-2.63s1.92-.98,3.28-.98,2.72.26,3.92.78l-.52,1.45c-1.18-.49-2.32-.74-3.44-.74-.88,0-1.57.19-2.06.57s-.74.9-.74,1.57c0,.49.09.9.27,1.22s.49.61.92.87,1.1.56,1.99.87c1.5.53,2.53,1.11,3.09,1.72s.84,1.41.84,2.38Z"></path>
      <path d="m237.82,31.15c-1.55,0-2.75-.48-3.6-1.43s-1.27-2.3-1.27-4.05.43-3.17,1.29-4.15,2.09-1.46,3.69-1.46c.51,0,1.03.06,1.54.17s.92.24,1.21.39l-.5,1.38c-.36-.14-.75-.26-1.17-.36s-.8-.14-1.12-.14c-2.17,0-3.26,1.39-3.26,4.16,0,1.31.27,2.32.8,3.03s1.32,1.05,2.36,1.05c.89,0,1.81-.19,2.74-.58v1.44c-.72.37-1.62.56-2.71.56Z"></path>
      <path d="m249.64,30.96l-.32-1.52h-.08c-.53.67-1.07,1.12-1.6,1.36s-1.19.36-1.99.36c-1.06,0-1.89-.27-2.5-.82s-.9-1.32-.9-2.33c0-2.16,1.73-3.29,5.19-3.4l1.82-.06v-.66c0-.84-.18-1.46-.54-1.86s-.94-.6-1.73-.6c-.89,0-1.9.27-3.03.82l-.5-1.24c.53-.29,1.11-.51,1.73-.67s1.26-.24,1.89-.24c1.28,0,2.22.28,2.84.85s.92,1.47.92,2.72v7.3h-1.2Zm-3.66-1.14c1.01,0,1.8-.28,2.38-.83s.86-1.33.86-2.32v-.97l-1.62.07c-1.29.05-2.22.25-2.79.6s-.85.91-.85,1.66c0,.59.18,1.03.53,1.34s.85.46,1.49.46Z"></path>
      <path d="m257.64,29.81c.29,0,.56-.02.83-.06s.48-.09.63-.13v1.24c-.18.08-.43.15-.78.21s-.65.08-.92.08c-2.07,0-3.11-1.09-3.11-3.27v-6.37h-1.53v-.78l1.53-.67.68-2.29h.94v2.48h3.11v1.26h-3.11v6.3c0,.64.15,1.14.46,1.48s.73.52,1.26.52Z"></path>
      <path d="m264.7,29.81c.29,0,.56-.02.83-.06s.48-.09.63-.13v1.24c-.18.08-.43.15-.78.21s-.65.08-.92.08c-2.07,0-3.11-1.09-3.11-3.27v-6.37h-1.53v-.78l1.53-.67.68-2.29h.94v2.48h3.11v1.26h-3.11v6.3c0,.64.15,1.14.46,1.48s.73.52,1.26.52Z"></path>
      <path d="m272.83,31.15c-1.58,0-2.83-.48-3.75-1.45s-1.37-2.3-1.37-4.01.42-3.1,1.27-4.11,1.99-1.52,3.42-1.52c1.34,0,2.4.44,3.18,1.32s1.17,2.05,1.17,3.49v1.03h-7.37c.03,1.26.35,2.21.95,2.86s1.45.98,2.54.98c1.15,0,2.29-.24,3.42-.72v1.45c-.57.25-1.12.42-1.63.53s-1.13.16-1.85.16Zm-.44-9.74c-.86,0-1.54.28-2.06.84s-.81,1.33-.9,2.32h5.6c0-1.02-.23-1.81-.68-2.35s-1.11-.82-1.95-.82Z"></path>
      <path d="m284.41,20.06c.48,0,.9.04,1.28.12l-.22,1.5c-.44-.1-.83-.15-1.17-.15-.87,0-1.61.35-2.22,1.05s-.92,1.58-.92,2.63v5.74h-1.62v-10.7h1.34l.19,1.98h.08c.4-.7.88-1.23,1.44-1.61s1.17-.57,1.85-.57Z"></path>
      <path d="m287.55,17.35c0-.37.09-.64.27-.82s.41-.26.68-.26.49.09.67.26.28.45.28.81-.09.64-.28.82-.41.27-.67.27-.5-.09-.68-.27-.27-.45-.27-.82Zm1.76,13.6h-1.62v-10.7h1.62v10.7Z"></path>
      <path d="m300.07,30.96v-6.92c0-.87-.2-1.52-.6-1.95s-1.02-.64-1.87-.64c-1.12,0-1.94.3-2.46.91s-.78,1.6-.78,3v5.62h-1.62v-10.7h1.32l.26,1.46h.08c.33-.53.8-.94,1.4-1.23s1.27-.43,2-.43c1.29,0,2.26.31,2.91.93s.98,1.62.98,2.98v6.98h-1.62Z"></path>
      <path d="m313.78,20.25v1.03l-1.98.23c.18.23.34.53.49.89s.21.78.21,1.25c0,1.05-.36,1.88-1.07,2.51s-1.7.94-2.95.94c-.32,0-.62-.03-.9-.08-.69.36-1.04.82-1.04,1.38,0,.29.12.51.36.65s.65.21,1.24.21h1.89c1.16,0,2.05.24,2.67.73s.93,1.2.93,2.13c0,1.19-.48,2.09-1.43,2.71s-2.34.93-4.16.93c-1.4,0-2.48-.26-3.24-.78s-1.14-1.26-1.14-2.21c0-.65.21-1.21.62-1.69s1-.8,1.76-.97c-.27-.12-.5-.32-.69-.58s-.28-.56-.28-.91c0-.39.1-.73.31-1.03s.54-.58.99-.85c-.55-.23-1-.62-1.35-1.16s-.52-1.17-.52-1.88c0-1.17.35-2.08,1.05-2.71s1.7-.95,2.99-.95c.56,0,1.06.06,1.51.2h3.7Zm-8.54,12.5c0,.58.24,1.02.73,1.32s1.19.45,2.1.45c1.36,0,2.37-.2,3.02-.61s.98-.96.98-1.66c0-.58-.18-.98-.54-1.21s-1.03-.34-2.02-.34h-1.94c-.74,0-1.31.18-1.72.53s-.62.86-.62,1.51Zm.88-9.07c0,.75.21,1.31.63,1.7s1.01.58,1.77.58c1.58,0,2.37-.77,2.37-2.3s-.8-2.41-2.4-2.41c-.76,0-1.35.21-1.76.62s-.62,1.02-.62,1.83Z"></path>
    </g>
    <g>
      <path d="m629.99,246.94h-.09c-.75,1.09-1.87,1.63-3.36,1.63-1.4,0-2.49-.48-3.27-1.44s-1.17-2.32-1.17-4.08.39-3.13,1.17-4.11,1.87-1.46,3.26-1.46,2.57.53,3.34,1.58h.13l-.07-.77-.04-.75v-4.36h1.62v15.2h-1.32l-.21-1.44Zm-3.24.27c1.11,0,1.91-.3,2.41-.9s.75-1.57.75-2.92v-.34c0-1.52-.25-2.6-.76-3.25s-1.31-.97-2.42-.97c-.95,0-1.68.37-2.18,1.11s-.76,1.78-.76,3.13.25,2.4.75,3.1,1.24,1.04,2.21,1.04Z"></path>
      <path d="m639.46,244.54l7.65-3.18-7.65-3.64v-1.46l9.38,4.68v.96l-9.38,4.12v-1.47Z"></path>
      <path d="m654.93,248.38l4.62-10.54-.57-1.58c-.2-.55-.37-.94-.54-1.17s-.35-.4-.57-.52-.49-.18-.81-.18c-.38,0-.75.04-1.12.13v-1.3c.44-.11.87-.17,1.28-.17.59,0,1.09.1,1.48.29s.73.5,1.02.93.61,1.13.96,2.12l3.54,9.88c.12.32.25.56.39.73s.32.25.55.25c.18,0,.37-.03.59-.1v1.18c-.31.16-.67.23-1.06.23-.48,0-.86-.12-1.13-.37s-.5-.64-.69-1.18l-1.52-4.26c-.55-1.56-.89-2.66-1.04-3.28h-.09c-.18.76-.56,1.81-1.13,3.17l-2.48,5.72h-1.68Z"></path>
    </g>
    <g>
      <path d="m206.79,246.94h-.09c-.75,1.09-1.87,1.63-3.36,1.63-1.4,0-2.49-.48-3.27-1.44s-1.17-2.32-1.17-4.08.39-3.13,1.17-4.11,1.87-1.46,3.26-1.46,2.57.53,3.34,1.58h.13l-.07-.77-.04-.75v-4.36h1.62v15.2h-1.32l-.21-1.44Zm-3.24.27c1.11,0,1.91-.3,2.41-.9s.75-1.57.75-2.92v-.34c0-1.52-.25-2.6-.76-3.25s-1.31-.97-2.42-.97c-.95,0-1.68.37-2.18,1.11s-.76,1.78-.76,3.13.25,2.4.75,3.1,1.24,1.04,2.21,1.04Z"></path>
      <path d="m225.64,246.01l-9.38-4.12v-.96l9.38-4.68v1.46l-7.64,3.62,7.64,3.2v1.47Z"></path>
      <path d="m237.07,246.01l-9.38-4.12v-.96l9.38-4.68v1.46l-7.64,3.62,7.64,3.2v1.47Z"></path>
      <path d="m243.17,248.38l4.62-10.54-.57-1.58c-.2-.55-.37-.94-.54-1.17s-.35-.4-.57-.52-.49-.18-.81-.18c-.38,0-.75.04-1.12.13v-1.3c.44-.11.87-.17,1.28-.17.59,0,1.09.1,1.48.29s.73.5,1.02.93.61,1.13.96,2.12l3.54,9.88c.12.32.25.56.39.73s.32.25.55.25c.18,0,.37-.03.59-.1v1.18c-.31.16-.67.23-1.06.23-.48,0-.86-.12-1.13-.37s-.5-.64-.69-1.18l-1.52-4.26c-.55-1.56-.89-2.66-1.04-3.28h-.09c-.18.76-.56,1.81-1.13,3.17l-2.48,5.72h-1.68Z"></path>
    </g>
    <ellipse ry="78.5" rx="97.5" cy="131.5" cx="224.74" class="cls-12"></ellipse>
    <g>
      <rect transform="translate(-31.19 49.56) rotate(-14.94)" height="2" width="71.33" y="142.71" x="137.74" class="cls-13"></rect>
      <polygon points="141.92 148.61 139.52 152.76 143.67 155.16 140.89 155.9 136.74 153.5 139.14 149.35 141.92 148.61" class="cls-13"></polygon>
    </g>
    <path d="m41.74,130.5c7.45-14.73,10-30,29-32,30.62-3.22,45.54,64.1,75,65,9.59.29,21.88-5.13,38-33" class="cls-4"></path>
    <g>
      <rect transform="translate(-56.02 126.39) rotate(-33.46)" height="2" width="68.44" y="155.37" x="147.97" class="cls-13"></rect>
      <polygon points="155.1 170.21 154.14 174.91 158.84 175.87 156.44 177.46 151.74 176.5 152.7 171.8 155.1 170.21" class="cls-13"></polygon>
    </g>
    <g>
      <rect transform="translate(-52.83 230.82) rotate(-55.08)" height="2" width="62.35" y="165.06" x="163.72" class="cls-13"></rect>
      <polygon points="176.55 186.42 177.39 191.14 182.11 190.3 180.46 192.66 175.74 193.5 174.9 188.78 176.55 186.42" class="cls-13"></polygon>
    </g>
    <g>
      <rect transform="translate(-4.06 338.58) rotate(-76.62)" height="2" width="60.48" y="170.86" x="182.03" class="cls-13"></rect>
      <polygon points="202.89 196.62 205.41 200.7 209.49 198.19 208.82 200.99 204.74 203.5 202.23 199.42 202.89 196.62" class="cls-13"></polygon>
    </g>
    <g>
      <rect height="57.2" width="2" y="144.01" x="223.74" class="cls-13"></rect>
      <polygon points="221.35 197.23 224.74 200.62 228.13 197.23 228.13 200.11 224.74 203.5 221.35 200.11 221.35 197.23" class="cls-13"></polygon>
    </g>
    <g>
      <rect transform="translate(-38.53 73.1) rotate(-16.11)" height="59.64" width="2" y="142.84" x="237.96" class="cls-13"></rect>
      <polygon points="242.87 198.42 247.07 200.74 249.39 196.54 250.19 199.3 247.87 203.5 243.67 201.18 242.87 198.42" class="cls-13"></polygon>
    </g>
    <g>
      <rect transform="translate(-49.94 180.2) rotate(-35.96)" height="60.79" width="2" y="136.65" x="251.68" class="cls-13"></rect>
      <polygon points="265.44 190.42 270.18 191.17 270.93 186.43 272.62 188.76 271.87 193.5 267.13 192.75 265.44 190.42" class="cls-13"></polygon>
    </g>
    <g>
      <rect transform="translate(-12.77 293.99) rotate(-56.52)" height="66.61" width="2" y="125.57" x="266.05" class="cls-13"></rect>
      <polygon points="289.64 177.87 294.34 176.91 293.38 172.21 295.78 173.8 296.74 178.5 292.04 179.46 289.64 177.87" class="cls-13"></polygon>
    </g>
    <g>
      <rect transform="translate(75.42 380.37) rotate(-76.97)" height="73.04" width="2" y="106.23" x="275.93" class="cls-13"></rect>
      <polygon points="307.87 153.39 311.94 150.85 309.4 146.78 312.2 147.43 314.74 151.5 310.67 154.04 307.87 153.39" class="cls-13"></polygon>
    </g>
    <g>
      <rect transform="translate(-18.55 57.73) rotate(-11.52)" height="2" width="72.61" y="119.81" x="240.62" class="cls-13"></rect>
      <polygon points="309.27 117.68 311.92 113.69 307.92 111.04 310.74 110.47 314.74 113.11 312.09 117.11 309.27 117.68" class="cls-13"></polygon>
    </g>
    <g>
      <rect transform="translate(-12.12 168.16) rotate(-34.19)" height="2" width="66.62" y="102.78" x="233.98" class="cls-13"></rect>
      <polygon points="293.46 90.11 294.36 85.39 289.65 84.5 292.03 82.88 296.74 83.78 295.84 88.49 293.46 90.11" class="cls-13"></polygon>
    </g>
    <g>
      <rect transform="translate(28.26 243.94) rotate(-54.16)" height="2" width="60.95" y="93.33" x="222.2" class="cls-13"></rect>
      <polygon points="270.95 74.85 270.18 70.11 265.45 70.87 267.14 68.54 271.87 67.78 272.63 72.51 270.95 74.85" class="cls-13"></polygon>
    </g>
    <g>
      <rect transform="translate(84.82 289.98) rotate(-73.41)" height="2" width="57.2" y="87.1" x="208.32" class="cls-13"></rect>
      <polygon points="247.2 65.48 244.92 61.26 240.7 63.54 241.52 60.78 245.74 58.5 248.02 62.72 247.2 65.48" class="cls-13"></polygon>
    </g>
    <g>
      <rect height="57.88" width="2" y="57.62" x="223.74" class="cls-13"></rect>
      <polygon points="228.13 61.6 224.74 58.21 221.35 61.6 221.35 58.72 224.74 55.33 228.13 58.72 228.13 61.6" class="cls-13"></polygon>
    </g>
    <g>
      <rect transform="translate(-17.56 77.87) rotate(-20.26)" height="58.47" width="2" y="58.84" x="208.15" class="cls-13"></rect>
      <polygon points="203.59 63.21 199.24 61.2 197.23 65.56 196.23 62.85 198.24 58.5 202.59 60.51 203.59 63.21" class="cls-13"></polygon>
    </g>
    <g>
      <rect transform="translate(-17.87 135.1) rotate(-36.92)" height="61.83" width="2" y="63.41" x="192.44" class="cls-13"></rect>
      <polygon points="179.98 70.75 175.23 70.08 174.55 74.83 172.82 72.53 173.5 67.78 178.25 68.45 179.98 70.75" class="cls-13"></polygon>
    </g>
    <g>
      <rect transform="translate(-6.33 195.71) rotate(-56.27)" height="67.46" width="2" y="70.05" x="178.82" class="cls-13"></rect>
      <polygon points="156.96 84.44 152.26 85.38 153.2 90.08 150.8 88.48 149.87 83.78 154.57 82.84 156.96 84.44" class="cls-13"></polygon>
    </g>
    <g>
      <rect transform="translate(18.46 264.41) rotate(-77.93)" height="68.94" width="2" y="86.33" x="171.68" class="cls-13"></rect>
      <polygon points="143.58 111.11 139.55 113.71 142.16 117.74 139.35 117.14 136.74 113.11 140.76 110.5 143.58 111.11" class="cls-13"></polygon>
    </g>
    <g>
      <rect height="3" width="154.27" y="129.15" x="40.54" class="cls-13"></rect>
      <polygon points="188.84 135.73 193.92 130.65 188.84 125.56 193.15 125.56 198.24 130.65 193.15 135.73 188.84 135.73" class="cls-13"></polygon>
    </g>
    <circle r="4.26" cy="130.26" cx="223.54" class="cls-11"></circle>
  </g>
</svg>